<?xml version="1.0" encoding="iso-8859-1"?>
<!-- Generator: Adobe Illustrator 19.0.0, SVG Export Plug-In . SVG Version: 6.00 Build 0)  -->
<svg version="1.1" id="Capa_1" xmlns="http://www.w3.org/2000/svg" xmlns:xlink="http://www.w3.org/1999/xlink" x="0px" y="0px"
	 viewBox="0 0 511.999 511.999" style="enable-background:new 0 0 511.999 511.999;" xml:space="preserve">
<path style="fill:#E6676C;" d="M295.543,32.719c-2.639-9.479-11.13-16.134-20.969-16.134h-37.148c-9.84,0-18.33,6.655-20.969,16.134
	c-8.503,30.539-38.742,47.901-38.742,72.4l78.286,51.918l78.286-51.918C334.285,80.621,304.045,63.258,295.543,32.719z"/>
<g>
	<path style="fill:#FC7176;" d="M145.216,126.588c0,0-0.968,0.063-2.783,0.181c-12.325,0.803-24.579,2.515-36.436,6.064
		c-24.435,7.314-46.691,20.619-64.478,38.919c-20.771,21.37-35.457,50.184-39.764,79.739c-3.636,24.945-1.712,50.119,6.612,73.985
		c0.071,0.205,0.284,0.818,0.593,1.697c2.776,7.907,11.82,11.631,19.361,7.978l15.617-7.566c6.035-2.924,9.082-9.687,7.459-16.192
		c-5.556-22.252-4.813-45.986,4.553-67.263c5.183-11.773,12.335-22.637,21.717-31.495c18.236-17.216,41.876-25.202,66.694-25.154
		c1.818,0.003,2.788,0.005,2.788,0.005L145.216,126.588z"/>
	<path style="fill:#FC7176;" d="M366.783,126.588c0,0,0.968,0.063,2.783,0.181c12.325,0.803,24.579,2.515,36.436,6.064
		c24.435,7.314,46.691,20.619,64.478,38.919c20.771,21.37,35.457,50.184,39.764,79.739c3.635,24.945,1.712,50.119-6.612,73.985
		c-0.071,0.205-0.284,0.818-0.593,1.697c-2.776,7.907-11.82,11.631-19.361,7.978l-15.617-7.566
		c-6.035-2.924-9.082-9.687-7.458-16.192c5.556-22.252,4.813-45.986-4.553-67.263c-5.183-11.773-12.335-22.637-21.717-31.495
		c-18.236-17.216-41.876-25.202-66.694-25.154c-1.818,0.003-2.788,0.005-2.788,0.005L366.783,126.588z"/>
</g>
<path style="fill:#80C9FF;" d="M255.999,157.038l132.482,51.918c0,45.646,47.333,69.728,47.333,176.522
	c0,29.102-8.965,51.98-20.067,69.155c-16.491,25.51-44.914,40.781-75.29,40.781H171.515c-29.673,0-57.697-14.468-74.184-39.139
	c-11.595-17.349-21.147-40.758-21.147-70.796c0-106.794,47.333-130.875,47.333-176.522L255.999,157.038z"/>
<g>
	<path style="fill:#E6676C;" d="M369.567,126.769c-1.815-0.118-2.783-0.181-2.783-0.181l-1.933,60.899c0,0,0.969-0.002,2.788-0.005
		c24.818-0.048,48.458,7.937,66.694,25.154c0.278,0.263,0.535,0.543,0.809,0.809c6.969-11.57,9.423-25.322,6.709-38.786
		l-5.066-25.122c-0.283-1.404-0.6-2.795-0.944-4.173c-9.434-5.208-19.434-9.416-29.836-12.529
		C394.145,129.284,381.892,127.572,369.567,126.769z"/>
	<path style="fill:#E6676C;" d="M147.148,187.488l-1.933-60.899c0,0-0.968,0.063-2.783,0.181
		c-12.325,0.803-24.579,2.515-36.436,6.064c-10.401,3.113-20.402,7.323-29.836,12.529c-0.344,1.378-0.66,2.769-0.944,4.173
		l-5.065,25.122c-2.716,13.464-0.262,27.216,6.708,38.785c0.274-0.266,0.531-0.546,0.809-0.808
		c18.236-17.216,41.876-25.202,66.694-25.154C146.179,187.486,147.148,187.488,147.148,187.488z"/>
</g>
<path style="fill:#6DAAD9;" d="M388.482,208.956l-132.482-51.918l-132.482,51.918c0,11.074-2.791,20.881-7.01,30.905h278.985
	C391.272,229.837,388.482,220.032,388.482,208.956z"/>
<path style="fill:#FC7176;" d="M411.553,180.768l-5.066-25.123c-5.927-29.389-31.751-50.526-61.733-50.526h-177.51
	c-29.981,0-55.805,21.136-61.733,50.526l-5.066,25.123c-2.939,14.574,8.203,28.189,23.071,28.189H388.48
	C403.349,208.956,414.492,195.342,411.553,180.768z"/>
<path style="fill:#FFB641;" d="M372.102,275.919c12.688,25.169,27.068,53.697,27.068,109.56c0,18.114-4.777,34.688-14.198,49.261
	c-9.726,15.047-26.367,24.029-44.514,24.029H171.515c-17.81,0-34.153-8.543-43.718-22.855
	c-9.932-14.862-14.969-31.831-14.969-50.435c0-55.863,14.38-84.389,27.067-109.56h232.206V275.919z"/>
<g>
	<path style="fill:#38484A;" d="M175.264,369.182c-4.267,0-7.726-3.459-7.726-7.726v-14.612c0-4.267,3.459-7.726,7.726-7.726
		c4.267,0,7.726,3.459,7.726,7.726v14.612C182.99,365.723,179.531,369.182,175.264,369.182z"/>
	<path style="fill:#38484A;" d="M336.735,369.182c-4.267,0-7.726-3.459-7.726-7.726v-14.612c0-4.267,3.459-7.726,7.726-7.726
		s7.726,3.459,7.726,7.726v14.612C344.461,365.723,341.002,369.182,336.735,369.182z"/>
	<path style="fill:#38484A;" d="M255.999,376.982c-9.996,0-19.38-4.176-25.744-11.458c-2.808-3.213-2.481-8.094,0.732-10.902
		s8.094-2.481,10.902,0.732c3.429,3.924,8.572,6.175,14.109,6.175s10.679-2.251,14.109-6.175c2.808-3.213,7.689-3.541,10.902-0.732
		c3.213,2.808,3.541,7.689,0.732,10.902C275.379,372.805,265.995,376.982,255.999,376.982z"/>
</g>
<g>
</g>
<g>
</g>
<g>
</g>
<g>
</g>
<g>
</g>
<g>
</g>
<g>
</g>
<g>
</g>
<g>
</g>
<g>
</g>
<g>
</g>
<g>
</g>
<g>
</g>
<g>
</g>
<g>
</g>
</svg>
