<?xml version="1.0" encoding="UTF-8"?>
<!-- Generator: Adobe Illustrator 19.0.0, SVG Export Plug-In . SVG Version: 6.00 Build 0)  -->
<svg width="512" height="535.9" version="1.1" viewBox="0 0 512 535.9" xml:space="preserve" xmlns="http://www.w3.org/2000/svg">
<path d="m295.54 73.204c-2.639-9.479-11.13-16.134-20.969-16.134h-37.148c-9.84 0-18.33 6.655-20.969 16.134-8.503 30.539-38.742 47.901-38.742 72.4l78.286 51.918 78.286-51.918c-2e-3 -24.498-30.242-41.861-38.744-72.4z" fill="#e6676c"/>
<g transform="translate(1.1994e-5 40.485)" fill="#fc7176">
	<path d="m145.22 126.59s-0.968 0.063-2.783 0.181c-12.325 0.803-24.579 2.515-36.436 6.064-24.435 7.314-46.691 20.619-64.478 38.919-20.771 21.37-35.457 50.184-39.764 79.739-3.636 24.945-1.712 50.119 6.612 73.985 0.071 0.205 0.284 0.818 0.593 1.697 2.776 7.907 11.82 11.631 19.361 7.978l15.617-7.566c6.035-2.924 9.082-9.687 7.459-16.192-5.556-22.252-4.813-45.986 4.553-67.263 5.183-11.773 12.335-22.637 21.717-31.495 18.236-17.216 41.876-25.202 66.694-25.154 1.818 3e-3 2.788 5e-3 2.788 5e-3z"/>
	<path d="m366.78 126.59s0.968 0.063 2.783 0.181c12.325 0.803 24.579 2.515 36.436 6.064 24.435 7.314 46.691 20.619 64.478 38.919 20.771 21.37 35.457 50.184 39.764 79.739 3.635 24.945 1.712 50.119-6.612 73.985-0.071 0.205-0.284 0.818-0.593 1.697-2.776 7.907-11.82 11.631-19.361 7.978l-15.617-7.566c-6.035-2.924-9.082-9.687-7.458-16.192 5.556-22.252 4.813-45.986-4.553-67.263-5.183-11.773-12.335-22.637-21.717-31.495-18.236-17.216-41.876-25.202-66.694-25.154-1.818 3e-3 -2.788 5e-3 -2.788 5e-3z"/>
</g>
<path d="m256 197.52 132.48 51.918c0 45.646 47.333 69.728 47.333 176.52 0 29.102-8.965 51.98-20.067 69.155-16.491 25.51-44.914 40.781-75.29 40.781h-168.94c-29.673 0-57.697-14.468-74.184-39.139-11.595-17.349-21.147-40.758-21.147-70.796 0-106.79 47.333-130.88 47.333-176.52z" fill="#80c9ff"/>
<g transform="translate(1.1994e-5 40.485)" fill="#e6676c">
	<path d="m369.57 126.77c-1.815-0.118-2.783-0.181-2.783-0.181l-1.933 60.899s0.969-2e-3 2.788-5e-3c24.818-0.048 48.458 7.937 66.694 25.154 0.278 0.263 0.535 0.543 0.809 0.809 6.969-11.57 9.423-25.322 6.709-38.786l-5.066-25.122c-0.283-1.404-0.6-2.795-0.944-4.173-9.434-5.208-19.434-9.416-29.836-12.529-11.86-3.551-24.113-5.263-36.438-6.066z"/>
	<path d="m147.15 187.49-1.933-60.899s-0.968 0.063-2.783 0.181c-12.325 0.803-24.579 2.515-36.436 6.064-10.401 3.113-20.402 7.323-29.836 12.529-0.344 1.378-0.66 2.769-0.944 4.173l-5.065 25.122c-2.716 13.464-0.262 27.216 6.708 38.785 0.274-0.266 0.531-0.546 0.809-0.808 18.236-17.216 41.876-25.202 66.694-25.154 1.817 5e-3 2.786 7e-3 2.786 7e-3z"/>
</g>
<path d="m388.48 249.44-132.48-51.918-132.48 51.918c0 11.074-2.791 20.881-7.01 30.905h278.98c-4.221-10.024-7.011-19.829-7.011-30.905z" fill="#6daad9"/>
<path d="m411.55 221.25-5.066-25.123c-5.927-29.389-31.751-50.526-61.733-50.526h-177.51c-29.981 0-55.805 21.136-61.733 50.526l-5.066 25.123c-2.939 14.574 8.203 28.189 23.071 28.189h264.96c14.869-1e-3 26.012-13.615 23.073-28.189z" fill="#fc7176"/>
<path d="m372.1 316.4c12.688 25.169 27.068 53.697 27.068 109.56 0 18.114-4.777 34.688-14.198 49.261-9.726 15.047-26.367 24.029-44.514 24.029h-168.94c-17.81 0-34.153-8.543-43.718-22.855-9.932-14.862-14.969-31.831-14.969-50.435 0-55.863 14.38-84.389 27.067-109.56h232.21z" fill="#ffb641"/>
<g transform="translate(1.1994e-5 40.485)" fill="#38484a">
	<path d="m175.26 369.18c-4.267 0-7.726-3.459-7.726-7.726v-14.612c0-4.267 3.459-7.726 7.726-7.726s7.726 3.459 7.726 7.726v14.612c0 4.267-3.459 7.726-7.726 7.726z"/>
	<path d="m336.74 369.18c-4.267 0-7.726-3.459-7.726-7.726v-14.612c0-4.267 3.459-7.726 7.726-7.726s7.726 3.459 7.726 7.726v14.612c0 4.267-3.459 7.726-7.726 7.726z"/>
	<path d="m256 376.98c-9.996 0-19.38-4.176-25.744-11.458-2.808-3.213-2.481-8.094 0.732-10.902s8.094-2.481 10.902 0.732c3.429 3.924 8.572 6.175 14.109 6.175s10.679-2.251 14.109-6.175c2.808-3.213 7.689-3.541 10.902-0.732 3.213 2.808 3.541 7.689 0.732 10.902-6.362 7.281-15.746 11.458-25.742 11.458z"/>
</g><g stroke-width=".76822">
















 <!-- Santa Hat -->
 
 <!-- Red triangular hat -->
 
 <!-- White pom-pom -->
 
 <!-- White hat brim -->

<rect x="101.97" y="201.65" width="308.07" height="85.104" fill="#fff"/><rect x="362.75" y="201.65" width="47.288" height="85.104" fill="#e6e6e6"/><path d="m394.1 74.449c-3.7707-5.4143-6.39-11.897-7.4417-18.985h-166.51l-96.934 146.18h265.57l-44.776-67.525z" fill="#bc052f"/></g><polygon transform="matrix(.72236 0 0 .81701 96.306 -62.578)" points="37.251 323.41 404.9 323.41 270.7 144.48 171.44 144.48" fill="#d80027"/><polygon transform="matrix(.72236 0 0 .81701 96.306 -62.578)" points="58.671 323.41 192.86 144.48 171.44 144.48 37.251 323.41" fill="#fff"/><polygon transform="matrix(.72236 0 0 .81701 96.306 -62.578)" points="371.98 323.41 404.9 323.41 270.7 144.48 237.79 144.48" fill="#bc052f"/><g stroke-width=".76822"><ellipse cx="423.31" cy="48.453" rx="37.181" ry="42.053" fill="#fff"/><path d="m423.31 6.4029c-2.7189 0-5.3656 0.33906-7.9184 0.9657 16.728 4.1055 29.263 20.937 29.263 41.086 0 20.151-12.534 36.981-29.263 41.086 2.5528 0.62664 5.1995 0.9657 7.9184 0.9657 20.534 0 37.18-18.827 37.18-42.052s-16.647-42.052-37.18-42.052z" fill="#e6e6e6"/><path d="m423.31 0c-23.622 0-42.841 21.736-42.841 48.454 0 26.718 19.218 48.454 42.841 48.454 23.623 0 42.841-21.736 42.841-48.454 0-26.718-19.218-48.454-42.841-48.454zm0 84.103c-17.379 0-31.519-15.992-31.519-35.649 0-19.657 14.139-35.649 31.519-35.649 17.38 0 31.52 15.992 31.52 35.649 0 19.657-14.14 35.649-31.52 35.649z"/><path d="m351.41 134.6 37.129-44.233-8.211-8.8163-35.807 42.659-41.344-62.349h68.63v-12.805h-154.49l-96.934 146.18h-24.076v97.91h319.39v-97.91h-24.076zm-128.43-72.74h66.044l88.444 133.38h-242.93zm181.39 218.48h-32.688v-30.474h-11.321v30.474h-32.687v-30.474h-11.321v30.474h-32.687v-30.474h-11.321v30.474h-32.687v-30.474h-11.321v30.474h-32.691v-30.474h-11.321v30.474h-32.686v-30.474h-11.321v30.474h-32.688v-72.299h296.74z"/></g></svg>
