<svg xmlns="http://www.w3.org/2000/svg" data-name="Layer 1" viewBox="0 0 64 64"><path d="M0 0h63.91v63.91H0z" style="fill:#e31017"/><path d="M1.419 1.383h20.578v20.506H1.419zM41.931 1.455h20.578v20.506H41.931zM41.931 42.039h20.578v20.506H41.931zM1.347 42.111h20.578v20.506H1.347z" style="fill:none;fill-opacity:.207254;stroke:#fff600;stroke-width:2.74995"/><path d="M21.449 21.988h20.599v20.168H21.449z" style="fill:none;fill-opacity:.207254;stroke:#fff600;stroke-width:2.72862"/><ellipse cx="48.92" cy="5.509" class="cls-3" rx=".831" ry=".832" style="fill:#381b11;stroke-width:1.51154"/><rect width="16.597" height="70.937" x="36.81" y="-34.573" class="cls-4" rx="8.298" style="fill:#f7ae78;stroke-width:1.51154" transform="rotate(45.031)"/><path d="M12.028 60.786a8.928 8.938 0 0 1-6.36-2.647 9.064 9.074 0 0 1 0-12.749L44.07 6.946a9.064 9.074 0 1 1 12.736 12.75L18.403 58.138a8.928 8.938 0 0 1-6.375 2.647m38.417-55.08a7.554 7.562 0 0 0-5.363 2.223L6.68 46.404a7.554 7.562 0 0 0 0 10.722 7.554 7.562 0 0 0 10.71 0l38.403-38.444a7.554 7.562 0 0 0-5.348-12.976" class="cls-5" style="fill:#321811;stroke-width:1.51154"/><rect width="9.069" height="7.074" x="40.787" y="-16.504" class="cls-3" rx="2.328" style="fill:#381b11;stroke-width:1.51154" transform="rotate(45.031)"/><rect width="9.976" height="1.693" x="40.237" y="-7.056" class="cls-3" rx=".559" style="fill:#381b11;stroke-width:1.51154" transform="rotate(45.031)"/><ellipse cx="49.599" cy="11.423" class="cls-3" rx=".831" ry=".832" style="fill:#381b11;stroke-width:1.51154"/><ellipse cx="49.403" cy="17.896" class="cls-3" rx=".831" ry=".832" style="fill:#381b11;stroke-width:1.51154"/><ellipse cx="46.956" cy="14.145" class="cls-3" rx=".831" ry=".832" style="fill:#381b11;stroke-width:1.51154"/><ellipse cx="44.69" cy="16.897" class="cls-3" rx=".831" ry=".832" style="fill:#381b11;stroke-width:1.51154"/><ellipse cx="29.144" cy="32.293" class="cls-3" rx=".831" ry=".832" style="fill:#381b11;stroke-width:1.51154"/><ellipse cx="34.235" cy="32.293" class="cls-3" rx=".831" ry=".832" style="fill:#381b11;stroke-width:1.51154"/><ellipse cx="31.667" cy="34.698" class="cls-3" rx=".831" ry=".832" style="fill:#381b11;stroke-width:1.51154"/><ellipse cx="31.667" cy="29.994" class="cls-3" rx=".831" ry=".832" style="fill:#381b11;stroke-width:1.51154"/><rect width="9.069" height="6.711" x="41.052" y="10.681" class="cls-3" rx="2.207" style="fill:#381b11;stroke-width:1.51154" transform="rotate(45.031)"/><rect width="9.976" height="1.693" x="40.513" y="6.251" class="cls-3" rx=".559" style="fill:#381b11;stroke-width:1.51154" transform="rotate(45.031)"/><ellipse cx="10.985" cy="50.457" class="cls-3" rx=".831" ry=".832" style="fill:#381b11;stroke-width:1.51154"/><ellipse cx="10.985" cy="53.905" class="cls-3" rx=".831" ry=".832" style="fill:#381b11;stroke-width:1.51154"/><ellipse cx="15.14" cy="53.587" class="cls-3" rx=".831" ry=".832" style="fill:#381b11;stroke-width:1.51154"/><ellipse cx="17.451" cy="50.275" class="cls-3" rx=".831" ry=".832" style="fill:#381b11;stroke-width:1.51154"/><ellipse cx="13.704" cy="47.825" class="cls-3" rx=".831" ry=".832" style="fill:#381b11;stroke-width:1.51154"/><ellipse cx="16.454" cy="45.557" class="cls-3" rx=".831" ry=".832" style="fill:#381b11;stroke-width:1.51154"/><rect width="16.597" height="70.937" x="-7.4" y="-80.56" class="cls-4" rx="8.298" style="fill:#f7ae78;stroke-width:1.51154" transform="rotate(134.969)"/><path d="M50.445 60.77a9.064 9.074 0 0 1-6.375-2.63L5.667 19.694A9.064 9.074 0 1 1 18.403 6.946L56.806 45.39a9.064 9.074 0 0 1 0 12.75 8.974 8.983 0 0 1-6.36 2.63M12.028 5.707A7.554 7.562 0 0 0 6.68 18.652l38.402 38.474a7.574 7.582 0 1 0 10.711-10.722L17.391 7.959a7.554 7.562 0 0 0-5.363-2.253" class="cls-5" style="fill:#321811;stroke-width:1.51154"/><rect width="9.069" height="8.026" x="-3.425" y="-35.708" class="cls-3" rx="2.645" style="fill:#381b11;stroke-width:1.51154" transform="rotate(134.969)"/><rect width="9.976" height="1.693" x="-3.955" y="-38.839" class="cls-3" rx=".559" style="fill:#381b11;stroke-width:1.51154" transform="rotate(134.969)"/><ellipse cx="12.874" cy="11.423" class="cls-3" rx=".831" ry=".832" style="fill:#381b11;stroke-width:1.51154"/><ellipse cx="9.444" cy="11.423" class="cls-3" rx=".831" ry=".832" style="fill:#381b11;stroke-width:1.51154"/><ellipse cx="9.761" cy="15.582" class="cls-3" rx=".831" ry=".832" style="fill:#381b11;stroke-width:1.51154"/><ellipse cx="13.07" cy="17.896" class="cls-3" rx=".831" ry=".832" style="fill:#381b11;stroke-width:1.51154"/><ellipse cx="15.517" cy="14.145" class="cls-3" rx=".831" ry=".832" style="fill:#381b11;stroke-width:1.51154"/><ellipse cx="17.783" cy="16.897" class="cls-3" rx=".831" ry=".832" style="fill:#381b11;stroke-width:1.51154"/><ellipse cx="33.329" cy="32.293" class="cls-3" rx=".831" ry=".832" style="fill:#381b11;stroke-width:1.51154"/><ellipse cx="28.238" cy="32.293" class="cls-3" rx=".831" ry=".832" style="fill:#381b11;stroke-width:1.51154"/><ellipse cx="30.806" cy="34.698" class="cls-3" rx=".831" ry=".832" style="fill:#381b11;stroke-width:1.51154"/><ellipse cx="30.806" cy="29.994" class="cls-3" rx=".831" ry=".832" style="fill:#381b11;stroke-width:1.51154"/><rect width="9.069" height="8.026" x="-3.156" y="-61.595" class="cls-3" rx="2.645" style="fill:#381b11;stroke-width:1.51154" transform="rotate(134.969)"/><rect width="9.976" height="1.693" x="-3.685" y="-52.135" class="cls-3" rx=".559" style="fill:#381b11;stroke-width:1.51154" transform="rotate(134.969)"/><ellipse cx="51.488" cy="50.457" class="cls-3" rx=".831" ry=".832" style="fill:#381b11;stroke-width:1.51154"/><ellipse cx="51.488" cy="53.905" class="cls-3" rx=".831" ry=".832" style="fill:#381b11;stroke-width:1.51154"/><ellipse cx="47.333" cy="53.587" class="cls-3" rx=".831" ry=".832" style="fill:#381b11;stroke-width:1.51154"/><ellipse cx="45.022" cy="50.275" class="cls-3" rx=".831" ry=".832" style="fill:#381b11;stroke-width:1.51154"/><ellipse cx="48.769" cy="47.825" class="cls-3" rx=".831" ry=".832" style="fill:#381b11;stroke-width:1.51154"/><ellipse cx="46.019" cy="45.557" class="cls-3" rx=".831" ry=".832" style="fill:#381b11;stroke-width:1.51154"/></svg>