<?xml version="1.0" encoding="UTF-8"?>
<svg data-name="Layer 1" version="1.1" viewBox="0 0 64 64" xmlns="http://www.w3.org/2000/svg">
 <path d="M-.03-.03H64V64H-.03z" fill="#e31017"/>
 <g stroke="#000" stroke-width=".5">
  <line x1="21.33" x2="21.33" y2="64"/>
  <line x1="42.66" x2="42.66" y2="64"/>
  <line x2="64" y1="21.33" y2="21.33"/>
  <line x2="64" y1="42.66" y2="42.66"/>
 </g>
 <g transform="matrix(.80063 0 0 .78535 -4.1324 12.223)" stroke-width=".157">
  <path d="m44.443 4.9873c-0.03886-0.40919-0.39659-0.56391-0.79259-0.56391h-10.814-1.4421-10.814c-0.39662 0-0.75375 0.15472-0.79322 0.56391l-5.6216 56.144c-0.04078 0.40983 0.25105 0.83438 0.64766 0.83438h10.093c0.39722 0 0.77408-0.51214 0.83638-0.91812l6.2575-39.718c0.06406-0.40536 0.16777-0.45011 0.2313-0.04477l6.2575 39.785c0.06359 0.40598 0.44041 0.89447 0.83516 0.89447h10.093c0.39722 0 0.68836-0.42453 0.64764-0.83374z" fill="#406a80"/>
  <path d="m45.57 5.7931c0-0.41302-0.32258-0.74677-0.72103-0.74677h-25.698c-0.39845 0-0.72105 0.33439-0.72105 0.74677v1.7026c0 0.41302 0.32259 0.74677 0.72105 0.74677h25.698c0.39845 0 0.72103-0.33438 0.72103-0.74677z" fill="#263740"/>
  <path d="m35.084 7.3883c0 0.82541-0.64581 1.4942-1.4421 1.4942h-3.2839c-0.7963 0-1.4421-0.66877-1.4421-1.4942v-1.4865c0-0.82541 0.6458-1.4942 1.4421-1.4942h3.2839c0.79628 0 1.4421 0.66877 1.4421 1.4942z" fill="#ffc066"/>
 </g>
 <g transform="matrix(1.3423 0 0 1.6868 -20.978 -4.2294)">
  <path d="m39.729 13.244c1.8939-3.315 1.5291-8.3255 1.5291-8.3255s5.0362 1.4205 8.5133 5.3211c3.2682 3.6663 0.18066 9.1283 0.18066 9.1283 2.4078-1.6213 3.3002-3.2423 3.382-5.1888 2.7049 2.9064 4.7947 6.237 4.7947 9.6073 0 4.1699-5.6331 7.5467-12.589 7.5489-6.953-0.0028-12.589-3.379-12.589-7.5489 0-4.0585 4.5451-6.6331 6.7784-10.542z" fill="#e17a2d" stroke-width=".083405"/>
  <g transform="matrix(.10166 0 0 .068429 20.806 1.6928)" opacity=".8">
   <path d="m210.46 272.58c10.222-29.384 8.258-73.791 8.258-73.791s98.12 74.674 91.131 167.23c-2.791 36.856-30.424 66.888-68.01 66.91-37.556-0.022-68.003-29.949-68.003-66.91 4e-3 -35.97 24.557-58.787 36.624-93.436z" fill="#f4e028"/>
   <path d="m222.02 330.07c6.481-18.619 5.231-46.753 5.231-46.753s62.169 47.318 57.743 105.96c-1.77 23.349-19.278 42.372-43.09 42.39-23.794-0.019-43.09-18.978-43.09-42.39 4e-3 -22.799 15.569-37.257 23.206-59.21z" fill="#fff"/>
  </g>
 </g>
</svg>
