<?xml version="1.0" encoding="UTF-8"?>
<svg data-name="Layer 1" version="1.1" viewBox="0 0 64 64" xmlns="http://www.w3.org/2000/svg">
 <path d="M-.03-.03H64V64H-.03z" fill="#FFBC40"/>
 <g stroke="#000" stroke-width=".5">
  <line x1="21.33" x2="21.33" y2="64"/>
  <line x1="42.66" x2="42.66" y2="64"/>
  <line x2="64" y1="21.33" y2="21.33"/>
  <line x2="64" y1="42.66" y2="42.66"/>
 </g>
 <g transform="matrix(10.065 0 0 10.065 -12.519 -12.519)" stroke-width=".2431">
  <path d="m6.862 4.431c0 1.3426-1.0884 2.431-2.431 2.431-1.3426 0-2.431-1.0884-2.431-2.431 0-1.3426 1.0884-2.431 2.431-2.431 1.3426 0 2.431 1.0884 2.431 2.431z" fill="#3f51b5"/>
  <path d="m4.431 3.2763c0.10069 0 0.18232 0.08163 0.18232 0.18232v0.89686l0.55434 0.55436c0.071203 0.071203 0.071203 0.18663 0 0.25783-0.071203 0.071203-0.18663 0.071203-0.25783 0l-0.60774-0.60774c-0.034204-0.03418-0.053409-0.080563-0.053409-0.12891v-0.97239c0-0.10069 0.081632-0.18232 0.18232-0.18232z" clip-rule="evenodd" fill="#fff" fill-rule="evenodd"/>
 </g>
</svg>
