<svg xmlns="http://www.w3.org/2000/svg" id="Layer_1" data-name="Layer 1" version="1.1" viewBox="0 0 64 64"><defs id="defs10435"><style id="style10433">.cls-3{fill:#f7ae78}.cls-4{fill:#321811}</style></defs><path id="rect10437" d="M0 0h63.91v63.91H0z" style="fill:#e31017"/><path id="rect5025-27" d="M23.254 21.945h20.599v20.168H23.254z" style="fill:none;fill-opacity:.207254;stroke:#fff600;stroke-width:2.72862"/><ellipse id="circle6426" cx="50.725" cy="5.466" class="cls-3" rx=".831" ry=".832" style="fill:#381b11;stroke-width:1.51154"/><rect id="rect6428" width="16.597" height="70.937" x="38.056" y="-35.881" class="cls-4" rx="8.298" style="fill:#f7ae78;stroke-width:1.51154" transform="rotate(45.031)"/><path id="path6430" d="M13.833 60.743a8.928 8.938 0 0 1-6.36-2.647 9.064 9.074 0 0 1 0-12.749L45.874 6.903a9.064 9.074 0 1 1 12.736 12.75L20.208 58.095a8.928 8.938 0 0 1-6.375 2.647M52.25 5.663a7.554 7.562 0 0 0-5.363 2.223L8.485 46.361a7.554 7.562 0 0 0 0 10.722 7.554 7.562 0 0 0 10.71 0L57.599 18.64A7.554 7.562 0 0 0 52.25 5.663" class="cls-5" style="fill:#321811;stroke-width:1.51154"/><rect id="rect6432" width="9.069" height="7.074" x="42.033" y="-17.812" class="cls-3" rx="2.328" style="fill:#381b11;stroke-width:1.51154" transform="rotate(45.031)"/><rect id="rect6434" width="9.976" height="1.693" x="41.484" y="-8.364" class="cls-3" rx=".559" style="fill:#381b11;stroke-width:1.51154" transform="rotate(45.031)"/><ellipse id="circle6436" cx="51.404" cy="11.38" class="cls-3" rx=".831" ry=".832" style="fill:#381b11;stroke-width:1.51154"/><ellipse id="circle6438" cx="51.208" cy="17.853" class="cls-3" rx=".831" ry=".832" style="fill:#381b11;stroke-width:1.51154"/><ellipse id="circle6440" cx="48.761" cy="14.102" class="cls-3" rx=".831" ry=".832" style="fill:#381b11;stroke-width:1.51154"/><ellipse id="circle6442" cx="46.495" cy="16.854" class="cls-3" rx=".831" ry=".832" style="fill:#381b11;stroke-width:1.51154"/><ellipse id="circle6444" cx="30.949" cy="32.25" class="cls-3" rx=".831" ry=".832" style="fill:#381b11;stroke-width:1.51154"/><ellipse id="circle6446" cx="36.04" cy="32.25" class="cls-3" rx=".831" ry=".832" style="fill:#381b11;stroke-width:1.51154"/><ellipse id="circle6448" cx="33.472" cy="34.655" class="cls-3" rx=".831" ry=".832" style="fill:#381b11;stroke-width:1.51154"/><ellipse id="circle6450" cx="33.472" cy="29.951" class="cls-3" rx=".831" ry=".832" style="fill:#381b11;stroke-width:1.51154"/><rect id="rect6452" width="9.069" height="6.711" x="42.299" y="9.374" class="cls-3" rx="2.207" style="fill:#381b11;stroke-width:1.51154" transform="rotate(45.031)"/><rect id="rect6454" width="9.976" height="1.693" x="41.759" y="4.943" class="cls-3" rx=".559" style="fill:#381b11;stroke-width:1.51154" transform="rotate(45.031)"/><ellipse id="circle6456" cx="12.79" cy="50.414" class="cls-3" rx=".831" ry=".832" style="fill:#381b11;stroke-width:1.51154"/><ellipse id="circle6458" cx="12.79" cy="53.862" class="cls-3" rx=".831" ry=".832" style="fill:#381b11;stroke-width:1.51154"/><ellipse id="circle6460" cx="16.945" cy="53.544" class="cls-3" rx=".831" ry=".832" style="fill:#381b11;stroke-width:1.51154"/><ellipse id="circle6462" cx="19.256" cy="50.232" class="cls-3" rx=".831" ry=".832" style="fill:#381b11;stroke-width:1.51154"/><ellipse id="circle6464" cx="15.51" cy="47.782" class="cls-3" rx=".831" ry=".832" style="fill:#381b11;stroke-width:1.51154"/><ellipse id="circle6466" cx="18.259" cy="45.514" class="cls-3" rx=".831" ry=".832" style="fill:#381b11;stroke-width:1.51154"/><rect id="rect6468" width="16.597" height="70.937" x="-8.707" y="-81.807" class="cls-4" rx="8.298" style="fill:#f7ae78;stroke-width:1.51154" transform="rotate(134.969)"/><path id="path6470" d="M52.25 60.728a9.064 9.074 0 0 1-6.375-2.632L7.472 19.652A9.064 9.074 0 1 1 20.208 6.903L58.61 45.347a9.064 9.074 0 0 1 0 12.75 8.974 8.983 0 0 1-6.36 2.63M13.833 5.663a7.554 7.562 0 0 0-5.348 12.946l38.402 38.474a7.574 7.582 0 1 0 10.711-10.722L19.196 7.916a7.554 7.562 0 0 0-5.363-2.253" class="cls-5" style="fill:#321811;stroke-width:1.51154"/><rect id="rect6472" width="9.069" height="8.026" x="-4.733" y="-36.955" class="cls-3" rx="2.645" style="fill:#381b11;stroke-width:1.51154" transform="rotate(134.969)"/><rect id="rect6474" width="9.976" height="1.693" x="-5.263" y="-40.085" class="cls-3" rx=".559" style="fill:#381b11;stroke-width:1.51154" transform="rotate(134.969)"/><ellipse id="circle6476" cx="14.679" cy="11.38" class="cls-3" rx=".831" ry=".832" style="fill:#381b11;stroke-width:1.51154"/><ellipse id="circle6478" cx="11.249" cy="11.38" class="cls-3" rx=".831" ry=".832" style="fill:#381b11;stroke-width:1.51154"/><ellipse id="circle6480" cx="11.567" cy="15.539" class="cls-3" rx=".831" ry=".832" style="fill:#381b11;stroke-width:1.51154"/><ellipse id="circle6482" cx="14.875" cy="17.853" class="cls-3" rx=".831" ry=".832" style="fill:#381b11;stroke-width:1.51154"/><ellipse id="circle6484" cx="17.322" cy="14.102" class="cls-3" rx=".831" ry=".832" style="fill:#381b11;stroke-width:1.51154"/><ellipse id="circle6486" cx="19.588" cy="16.854" class="cls-3" rx=".831" ry=".832" style="fill:#381b11;stroke-width:1.51154"/><ellipse id="circle6488" cx="35.134" cy="32.25" class="cls-3" rx=".831" ry=".832" style="fill:#381b11;stroke-width:1.51154"/><ellipse id="circle6490" cx="30.043" cy="32.25" class="cls-3" rx=".831" ry=".832" style="fill:#381b11;stroke-width:1.51154"/><ellipse id="circle6492" cx="32.611" cy="34.655" class="cls-3" rx=".831" ry=".832" style="fill:#381b11;stroke-width:1.51154"/><ellipse id="circle6494" cx="32.611" cy="29.951" class="cls-3" rx=".831" ry=".832" style="fill:#381b11;stroke-width:1.51154"/><rect id="rect6496" width="9.069" height="8.026" x="-4.463" y="-62.842" class="cls-3" rx="2.645" style="fill:#381b11;stroke-width:1.51154" transform="rotate(134.969)"/><rect id="rect6498" width="9.976" height="1.693" x="-4.993" y="-53.381" class="cls-3" rx=".559" style="fill:#381b11;stroke-width:1.51154" transform="rotate(134.969)"/><ellipse id="circle6500" cx="53.293" cy="50.414" class="cls-3" rx=".831" ry=".832" style="fill:#381b11;stroke-width:1.51154"/><ellipse id="circle6502" cx="53.293" cy="53.862" class="cls-3" rx=".831" ry=".832" style="fill:#381b11;stroke-width:1.51154"/><ellipse id="circle6504" cx="49.138" cy="53.544" class="cls-3" rx=".831" ry=".832" style="fill:#381b11;stroke-width:1.51154"/><ellipse id="circle6506" cx="46.827" cy="50.232" class="cls-3" rx=".831" ry=".832" style="fill:#381b11;stroke-width:1.51154"/><ellipse id="circle6508" cx="50.574" cy="47.782" class="cls-3" rx=".831" ry=".832" style="fill:#381b11;stroke-width:1.51154"/><ellipse id="circle6510" cx="47.824" cy="45.514" class="cls-3" rx=".831" ry=".832" style="fill:#381b11;stroke-width:1.51154"/></svg>